<?xml version="1.0" standalone="no"?>
<!DOCTYPE svg PUBLIC "-//W3C//DTD SVG 20010904//EN"
 "http://www.w3.org/TR/2001/REC-SVG-20010904/DTD/svg10.dtd">
<svg version="1.0" xmlns="http://www.w3.org/2000/svg"
 width="500.000000pt" height="500.000000pt" viewBox="0 0 500.000000 500.000000"
 preserveAspectRatio="xMidYMid meet">
<metadata>
Created by potrace 1.14, written by Peter Selinger 2001-2017
</metadata>
<g transform="translate(0.000000,500.000000) scale(0.100000,-0.100000)"
fill="#000000" stroke="none">
<path d="M1805 4370 c-223 -32 -447 -145 -621 -312 -135 -130 -218 -268 -266
-443 -25 -91 -35 -305 -19 -401 44 -262 257 -520 566 -689 44 -24 173 -87 285
-140 327 -153 455 -238 504 -337 46 -93 29 -226 -39 -306 -100 -116 -367 -165
-585 -107 -170 46 -408 165 -564 282 -49 37 -91 62 -96 57 -5 -5 -92 -148
-193 -319 l-185 -310 26 -23 c107 -93 433 -267 598 -320 55 -18 157 -43 225
-57 640 -125 1234 35 1495 401 142 198 214 515 174 762 -34 208 -169 398 -415
582 -128 96 -222 148 -476 261 -123 55 -258 118 -299 141 -150 82 -247 161
-269 221 -15 38 -14 120 1 171 18 59 98 137 173 167 55 21 74 24 215 23 139 0
164 -3 243 -27 132 -41 284 -103 360 -148 38 -23 70 -39 72 -37 6 6 305 595
305 600 0 11 -161 109 -228 139 -109 49 -319 116 -453 144 -99 21 -160 27
-299 30 -96 2 -202 0 -235 -5z"/>
<path d="M3655 1816 c-75 -24 -130 -59 -192 -122 -105 -105 -152 -240 -133
-389 27 -206 184 -366 391 -398 251 -39 492 139 530 391 30 203 -81 408 -271
496 -58 27 -77 30 -175 33 -72 2 -124 -2 -150 -11z"/>
</g>
</svg>
